# xmcd CD database file
#
# Track frame offsets:
#	150
#	18537
#	31989
#	49985
#	66791
#	88151
#	110409
#	132952
#	156658
#	176664
#
# Disc length: 2565 seconds
#
# Revision: 0
# Processed by: cddbd v1.5.2PL0 Copyright (c) Steve Scherf et al.
# Submitted via: CDex 1.70beta2
#
DISCID=8c0a030a
DTITLE=Pat Flynn - reQuest
DYEAR=2004
DGENRE=Country
TTITLE0=Sundown
TTITLE1=Shape I'm In
TTITLE2=Lila
TTITLE3=If I Had a Hammer
TTITLE4=All on a Rising Day
TTITLE5=In the Middle of the Night
TTITLE6=The Word
TTITLE7=Big Mistake
TTITLE8=Michael, Row the Boat Ashore
TTITLE9=Motherlode
EXTD=YEAR: 2004
EXTT0=
EXTT1=
EXTT2=
EXTT3=
EXTT4=
EXTT5=
EXTT6=
EXTT7=
EXTT8=
EXTT9=
PLAYORDER=
